# xmcd
#
# Track frame offsets: 
#        150
#        14340
#        28704
#        44728
#        59745
#        75873
#        89177
#        107262
#        130421
#        146529
#        161322
#        176450
#        192768
#        209756
#        220913
#        236958
#        252492
#        269109
#        283460
#        297897
#
# Disc length: 4163 seconds
#
# Revision: 0
# Processed by: cddbd v1.5.2PL0 Copyright (c) Steve Scherf et al.
# Submitted via: ExactAudioCopy v1.3
#
DISCID=40104114
DTITLE=The Bellamy Brothers - 40 Years - the album - CD1
DYEAR=2015
DGENRE=Country
TTITLE0=Let Your Love Flow
TTITLE1=If I Said You Have A Beautiful Body, Woult You Holding Against
TTITLE1=Me
TTITLE2=I Need More Of You
TTITLE3=Redneck Girl
TTITLE4=Sugar Daddy
TTITLE5=Do You Love As Good As You Look
TTITLE6=Old Hippie
TTITLE7=You Ain't Just Whistlin' Dixie (Live)
TTITLE8=Crossfire
TTITLE9=Lovers Live Longer
TTITLE10=Dancin' Cowboys
TTITLE11=Crazy From The Heart
TTITLE12=When I'm Away From You
TTITLE13=Country Rap
TTITLE14=Feelin' The Feelin'
TTITLE15=I'd Lie To You For Your Love
TTITLE16=For All The Wrong Reason's
TTITLE17=Get Into The Reggae Cowboy
TTITLE18=Kids Of The Baby Boom
TTITLE19=Jalapeños
EXTD=
EXTT0=
EXTT1=
EXTT2=
EXTT3=
EXTT4=
EXTT5=
EXTT6=
EXTT7=
EXTT8=
EXTT9=
EXTT10=
EXTT11=
EXTT12=
EXTT13=
EXTT14=
EXTT15=
EXTT16=
EXTT17=
EXTT18=
EXTT19=
PLAYORDER=
